<mxfile host="app.diagrams.net" modified="2021-11-07T20:55:56.312Z" agent="5.0 (Windows NT 10.0; Win64; x64) AppleWebKit/537.36 (KHTML, like Gecko) Chrome/95.0.4638.69 Safari/537.36" etag="vu7fOVbtwH6Dy6CVJjDG" version="15.7.0" type="github">
  <diagram id="NL9UdZ6myMD5wK0JEfy0" name="Page-1">
    <mxGraphModel dx="1240" dy="689" grid="1" gridSize="10" guides="1" tooltips="1" connect="1" arrows="1" fold="1" page="1" pageScale="1" pageWidth="850" pageHeight="1100" math="0" shadow="0">
      <root>
        <mxCell id="0" />
        <mxCell id="1" parent="0" />
        <mxCell id="KYOpBCUUm566aedwiFP6-2" value="Flowchart System penyewaan studio music" style="shape=table;childLayout=tableLayout;rowLines=0;columnLines=0;startSize=40;collapsible=0;recursiveResize=0;expand=0;pointerEvents=0;fontStyle=1;align=center;" vertex="1" parent="1">
          <mxGeometry x="40" y="40" width="750" height="1040" as="geometry" />
        </mxCell>
        <mxCell id="KYOpBCUUm566aedwiFP6-3" value="" style="swimlane;horizontal=0;points=[[0,0.5],[1,0.5]];portConstraint=eastwest;startSize=40;collapsible=0;recursiveResize=0;expand=0;pointerEvents=0;fontStyle=1" vertex="1" parent="KYOpBCUUm566aedwiFP6-2">
          <mxGeometry y="40" width="750" height="1000" as="geometry" />
        </mxCell>
        <mxCell id="KYOpBCUUm566aedwiFP6-4" value="Pelanggan" style="swimlane;connectable=0;startSize=40;collapsible=0;recursiveResize=0;expand=0;pointerEvents=0;" vertex="1" parent="KYOpBCUUm566aedwiFP6-3">
          <mxGeometry x="40" width="237" height="1000" as="geometry">
            <mxRectangle width="237" height="1000" as="alternateBounds" />
          </mxGeometry>
        </mxCell>
        <mxCell id="KYOpBCUUm566aedwiFP6-32" style="edgeStyle=orthogonalEdgeStyle;rounded=0;orthogonalLoop=1;jettySize=auto;html=1;" edge="1" parent="KYOpBCUUm566aedwiFP6-4" source="KYOpBCUUm566aedwiFP6-15" target="KYOpBCUUm566aedwiFP6-16">
          <mxGeometry relative="1" as="geometry" />
        </mxCell>
        <mxCell id="KYOpBCUUm566aedwiFP6-15" value="Start" style="strokeWidth=2;html=1;shape=mxgraph.flowchart.terminator;whiteSpace=wrap;" vertex="1" parent="KYOpBCUUm566aedwiFP6-4">
          <mxGeometry x="80" y="80" width="79.25" height="40" as="geometry" />
        </mxCell>
        <mxCell id="KYOpBCUUm566aedwiFP6-33" style="edgeStyle=orthogonalEdgeStyle;rounded=0;orthogonalLoop=1;jettySize=auto;html=1;entryX=0.5;entryY=0;entryDx=0;entryDy=0;" edge="1" parent="KYOpBCUUm566aedwiFP6-4" source="KYOpBCUUm566aedwiFP6-16" target="KYOpBCUUm566aedwiFP6-17">
          <mxGeometry relative="1" as="geometry" />
        </mxCell>
        <mxCell id="KYOpBCUUm566aedwiFP6-16" value="Visit Website Studio Music" style="rounded=0;whiteSpace=wrap;html=1;" vertex="1" parent="KYOpBCUUm566aedwiFP6-4">
          <mxGeometry x="78.88" y="200" width="81.12" height="40" as="geometry" />
        </mxCell>
        <mxCell id="KYOpBCUUm566aedwiFP6-34" style="edgeStyle=orthogonalEdgeStyle;rounded=0;orthogonalLoop=1;jettySize=auto;html=1;" edge="1" parent="KYOpBCUUm566aedwiFP6-4" source="KYOpBCUUm566aedwiFP6-17" target="KYOpBCUUm566aedwiFP6-18">
          <mxGeometry relative="1" as="geometry" />
        </mxCell>
        <mxCell id="KYOpBCUUm566aedwiFP6-17" value="Pengisian&amp;nbsp;&lt;br&gt;Form Registrasi" style="rounded=0;whiteSpace=wrap;html=1;" vertex="1" parent="KYOpBCUUm566aedwiFP6-4">
          <mxGeometry x="74.44" y="320" width="90" height="40" as="geometry" />
        </mxCell>
        <mxCell id="KYOpBCUUm566aedwiFP6-18" value="Upload&lt;br&gt;Form" style="shape=document;whiteSpace=wrap;html=1;boundedLbl=1;" vertex="1" parent="KYOpBCUUm566aedwiFP6-4">
          <mxGeometry x="80" y="440" width="80" height="50" as="geometry" />
        </mxCell>
        <mxCell id="KYOpBCUUm566aedwiFP6-39" style="edgeStyle=orthogonalEdgeStyle;rounded=0;orthogonalLoop=1;jettySize=auto;html=1;" edge="1" parent="KYOpBCUUm566aedwiFP6-4" source="KYOpBCUUm566aedwiFP6-23" target="KYOpBCUUm566aedwiFP6-24">
          <mxGeometry relative="1" as="geometry" />
        </mxCell>
        <mxCell id="KYOpBCUUm566aedwiFP6-23" value="" style="verticalLabelPosition=bottom;verticalAlign=top;html=1;shape=mxgraph.flowchart.on-page_reference;" vertex="1" parent="KYOpBCUUm566aedwiFP6-4">
          <mxGeometry x="100.02" y="560" width="39.98" height="40" as="geometry" />
        </mxCell>
        <mxCell id="KYOpBCUUm566aedwiFP6-40" style="edgeStyle=orthogonalEdgeStyle;rounded=0;orthogonalLoop=1;jettySize=auto;html=1;" edge="1" parent="KYOpBCUUm566aedwiFP6-4" source="KYOpBCUUm566aedwiFP6-24" target="KYOpBCUUm566aedwiFP6-25">
          <mxGeometry relative="1" as="geometry" />
        </mxCell>
        <mxCell id="KYOpBCUUm566aedwiFP6-24" value="Jadi Sewa?" style="rhombus;whiteSpace=wrap;html=1;" vertex="1" parent="KYOpBCUUm566aedwiFP6-4">
          <mxGeometry x="80.01" y="680" width="80" height="80" as="geometry" />
        </mxCell>
        <mxCell id="KYOpBCUUm566aedwiFP6-25" value="Konfirmasi&amp;nbsp;&lt;br&gt;Jadi" style="rounded=0;whiteSpace=wrap;html=1;" vertex="1" parent="KYOpBCUUm566aedwiFP6-4">
          <mxGeometry x="81.13" y="820" width="78.87" height="40" as="geometry" />
        </mxCell>
        <mxCell id="KYOpBCUUm566aedwiFP6-49" value="Ya" style="text;html=1;align=center;verticalAlign=middle;whiteSpace=wrap;rounded=0;labelBackgroundColor=default;" vertex="1" parent="KYOpBCUUm566aedwiFP6-4">
          <mxGeometry x="90.56" y="770" width="60" height="30" as="geometry" />
        </mxCell>
        <mxCell id="KYOpBCUUm566aedwiFP6-85" value="Tidak" style="text;html=1;align=center;verticalAlign=middle;whiteSpace=wrap;rounded=0;labelBackgroundColor=default;" vertex="1" parent="KYOpBCUUm566aedwiFP6-4">
          <mxGeometry x="180" y="705" width="44.44" height="30" as="geometry" />
        </mxCell>
        <mxCell id="KYOpBCUUm566aedwiFP6-87" value="" style="edgeStyle=orthogonalEdgeStyle;rounded=0;orthogonalLoop=1;jettySize=auto;html=1;entryX=0;entryY=0.5;entryDx=0;entryDy=0;endArrow=none;" edge="1" parent="KYOpBCUUm566aedwiFP6-4" source="KYOpBCUUm566aedwiFP6-24" target="KYOpBCUUm566aedwiFP6-85">
          <mxGeometry relative="1" as="geometry">
            <mxPoint x="240.01000000000022" y="880" as="sourcePoint" />
            <mxPoint x="398.88999999999965" y="880" as="targetPoint" />
          </mxGeometry>
        </mxCell>
        <mxCell id="KYOpBCUUm566aedwiFP6-5" value="Admin" style="swimlane;connectable=0;startSize=40;collapsible=0;recursiveResize=0;expand=0;pointerEvents=0;" vertex="1" parent="KYOpBCUUm566aedwiFP6-3">
          <mxGeometry x="277" width="236" height="1000" as="geometry">
            <mxRectangle width="236" height="1000" as="alternateBounds" />
          </mxGeometry>
        </mxCell>
        <mxCell id="KYOpBCUUm566aedwiFP6-38" style="edgeStyle=orthogonalEdgeStyle;rounded=0;orthogonalLoop=1;jettySize=auto;html=1;" edge="1" parent="KYOpBCUUm566aedwiFP6-5" source="KYOpBCUUm566aedwiFP6-19" target="KYOpBCUUm566aedwiFP6-22">
          <mxGeometry relative="1" as="geometry" />
        </mxCell>
        <mxCell id="KYOpBCUUm566aedwiFP6-19" value="Pencetakan Jadwal&amp;nbsp;&lt;br&gt;Di Sistem" style="shape=document;whiteSpace=wrap;html=1;boundedLbl=1;" vertex="1" parent="KYOpBCUUm566aedwiFP6-5">
          <mxGeometry x="67.89" y="390" width="115.49" height="70" as="geometry" />
        </mxCell>
        <mxCell id="KYOpBCUUm566aedwiFP6-36" style="edgeStyle=orthogonalEdgeStyle;rounded=0;orthogonalLoop=1;jettySize=auto;html=1;" edge="1" parent="KYOpBCUUm566aedwiFP6-5" source="KYOpBCUUm566aedwiFP6-20" target="KYOpBCUUm566aedwiFP6-21">
          <mxGeometry relative="1" as="geometry" />
        </mxCell>
        <mxCell id="KYOpBCUUm566aedwiFP6-20" value="Konfirmasi&amp;nbsp;&lt;br&gt;Calon Penyewa" style="rounded=0;whiteSpace=wrap;html=1;" vertex="1" parent="KYOpBCUUm566aedwiFP6-5">
          <mxGeometry x="77.17" y="120" width="95.44" height="40" as="geometry" />
        </mxCell>
        <mxCell id="KYOpBCUUm566aedwiFP6-37" style="edgeStyle=orthogonalEdgeStyle;rounded=0;orthogonalLoop=1;jettySize=auto;html=1;" edge="1" parent="KYOpBCUUm566aedwiFP6-5" source="KYOpBCUUm566aedwiFP6-21" target="KYOpBCUUm566aedwiFP6-19">
          <mxGeometry relative="1" as="geometry" />
        </mxCell>
        <mxCell id="KYOpBCUUm566aedwiFP6-21" value="Calon Penyewa Valid ?" style="rhombus;whiteSpace=wrap;html=1;" vertex="1" parent="KYOpBCUUm566aedwiFP6-5">
          <mxGeometry x="84.89" y="240" width="80" height="80" as="geometry" />
        </mxCell>
        <mxCell id="KYOpBCUUm566aedwiFP6-22" value="" style="verticalLabelPosition=bottom;verticalAlign=top;html=1;shape=mxgraph.flowchart.on-page_reference;" vertex="1" parent="KYOpBCUUm566aedwiFP6-5">
          <mxGeometry x="101.94999999999999" y="500" width="45.88" height="40" as="geometry" />
        </mxCell>
        <mxCell id="KYOpBCUUm566aedwiFP6-42" style="rounded=0;orthogonalLoop=1;jettySize=auto;html=1;" edge="1" parent="KYOpBCUUm566aedwiFP6-5" source="KYOpBCUUm566aedwiFP6-26" target="KYOpBCUUm566aedwiFP6-43">
          <mxGeometry relative="1" as="geometry">
            <mxPoint x="120.91999999999996" y="820" as="targetPoint" />
          </mxGeometry>
        </mxCell>
        <mxCell id="KYOpBCUUm566aedwiFP6-26" value="Hapus Jadwal&lt;br&gt;Di Sistem" style="rounded=0;whiteSpace=wrap;html=1;" vertex="1" parent="KYOpBCUUm566aedwiFP6-5">
          <mxGeometry x="81.88999999999999" y="700" width="82.25" height="40" as="geometry" />
        </mxCell>
        <mxCell id="KYOpBCUUm566aedwiFP6-29" value="End" style="strokeWidth=2;html=1;shape=mxgraph.flowchart.terminator;whiteSpace=wrap;" vertex="1" parent="KYOpBCUUm566aedwiFP6-5">
          <mxGeometry x="84.50999999999999" y="940" width="81.5" height="40" as="geometry" />
        </mxCell>
        <mxCell id="KYOpBCUUm566aedwiFP6-44" style="edgeStyle=none;rounded=0;orthogonalLoop=1;jettySize=auto;html=1;" edge="1" parent="KYOpBCUUm566aedwiFP6-5" source="KYOpBCUUm566aedwiFP6-43" target="KYOpBCUUm566aedwiFP6-29">
          <mxGeometry relative="1" as="geometry" />
        </mxCell>
        <mxCell id="KYOpBCUUm566aedwiFP6-43" value="Laporan" style="rounded=0;whiteSpace=wrap;html=1;" vertex="1" parent="KYOpBCUUm566aedwiFP6-5">
          <mxGeometry x="85" y="820" width="77" height="40" as="geometry" />
        </mxCell>
        <mxCell id="KYOpBCUUm566aedwiFP6-84" value="Ya" style="text;html=1;align=center;verticalAlign=middle;whiteSpace=wrap;rounded=0;labelBackgroundColor=default;" vertex="1" parent="KYOpBCUUm566aedwiFP6-5">
          <mxGeometry x="95.25999999999999" y="340" width="60" height="30" as="geometry" />
        </mxCell>
        <mxCell id="KYOpBCUUm566aedwiFP6-6" value="Pemilik Studio" style="swimlane;connectable=0;startSize=40;collapsible=0;recursiveResize=0;expand=0;pointerEvents=0;" vertex="1" parent="KYOpBCUUm566aedwiFP6-3">
          <mxGeometry x="513" width="237" height="1000" as="geometry">
            <mxRectangle width="237" height="1000" as="alternateBounds" />
          </mxGeometry>
        </mxCell>
        <mxCell id="KYOpBCUUm566aedwiFP6-28" value="Laporan" style="rounded=0;whiteSpace=wrap;html=1;" vertex="1" parent="KYOpBCUUm566aedwiFP6-6">
          <mxGeometry x="77.37" y="820" width="82.25" height="40" as="geometry" />
        </mxCell>
        <mxCell id="KYOpBCUUm566aedwiFP6-35" style="edgeStyle=orthogonalEdgeStyle;rounded=0;orthogonalLoop=1;jettySize=auto;html=1;" edge="1" parent="KYOpBCUUm566aedwiFP6-3" source="KYOpBCUUm566aedwiFP6-18" target="KYOpBCUUm566aedwiFP6-20">
          <mxGeometry relative="1" as="geometry">
            <Array as="points">
              <mxPoint x="160" y="520" />
              <mxPoint x="320" y="520" />
              <mxPoint x="320" y="140" />
            </Array>
          </mxGeometry>
        </mxCell>
        <mxCell id="KYOpBCUUm566aedwiFP6-41" style="edgeStyle=orthogonalEdgeStyle;rounded=0;orthogonalLoop=1;jettySize=auto;html=1;entryX=0;entryY=0.5;entryDx=0;entryDy=0;startArrow=none;" edge="1" parent="KYOpBCUUm566aedwiFP6-3" source="KYOpBCUUm566aedwiFP6-85" target="KYOpBCUUm566aedwiFP6-26">
          <mxGeometry relative="1" as="geometry" />
        </mxCell>
        <mxCell id="KYOpBCUUm566aedwiFP6-47" style="edgeStyle=none;rounded=0;orthogonalLoop=1;jettySize=auto;html=1;" edge="1" parent="KYOpBCUUm566aedwiFP6-3" source="KYOpBCUUm566aedwiFP6-25" target="KYOpBCUUm566aedwiFP6-43">
          <mxGeometry relative="1" as="geometry" />
        </mxCell>
        <mxCell id="KYOpBCUUm566aedwiFP6-48" style="edgeStyle=none;rounded=0;orthogonalLoop=1;jettySize=auto;html=1;" edge="1" parent="KYOpBCUUm566aedwiFP6-3" source="KYOpBCUUm566aedwiFP6-43" target="KYOpBCUUm566aedwiFP6-28">
          <mxGeometry relative="1" as="geometry" />
        </mxCell>
      </root>
    </mxGraphModel>
  </diagram>
</mxfile>
